# xmcd
#
# Track frame offsets:
#	150
#	9455
#	36941
#	60682
#	90653
#	127234
#	155894
#	168214
#	187535
#	209219
#	234002
#	241677
#
# Disc length: 3640 seconds
#
# Revision: 2612287524
# Processed by: cddbd v1.5.2PL0 Copyright (c) Steve Scherf et al.
# Submitted via: EZCDAudioConverter 8.0.2.1
#
DISCID=970e360c
DTITLE=Various Artist - st. Phạm Duy. Con Đường Tình Ta Đi
DYEAR=2008
DGENRE=World Pop
TTITLE0=Hà Anh Tuấn - Lời dẫn 3
TTITLE1=Thanh Lam - Đố ai
TTITLE2=Thanh Lam - Phượng yêu
TTITLE3=Đức Tuấn - Chỉ chừng đó thôi
TTITLE4=Lệ Thu, Đức Tuấn - Nha Trang ngày về
TTITLE5=Lệ Thu - Còn gì nữa đâu
TTITLE6=Hà Anh Tuấn - Lời dẫn 4
TTITLE7=Tuấn Ngọc - Tình cầm
TTITLE8=Tuấn Ngọc - Đường em đi
TTITLE9=Mỹ Linh - Kiếp nào có yêu nhau
TTITLE10=Phạm Duy - Lời cuối
TTITLE11=Đức Tuấn, Nguyên Thảo - Con Đường Tình Ta Đi
EXTD=
EXTT0=
EXTT1=
EXTT2=
EXTT3=
EXTT4=
EXTT5=
EXTT6=
EXTT7=
EXTT8=
EXTT9=
EXTT10=
EXTT11=
PLAYORDER=
